<svg width="0" height="0" class="hidden">
  <symbol viewBox="0 0 20 20" fill="none" xmlns="http://www.w3.org/2000/svg" id="Subtract">
    <path fill-rule="evenodd" clip-rule="evenodd" d="M.4 15.61V4.39A3.99 3.99 0 0 1 4.39.4h11.22a3.99 3.99 0 0 1 3.99 3.99v11.22a3.99 3.99 0 0 1-3.99 3.99H4.39A3.99 3.99 0 0 1 .4 15.61zm4.16-7.644a5.823 5.823 0 0 0 7.474 7.474 5.508 5.508 0 0 0 3.406-3.406A5.823 5.823 0 0 0 7.966 4.56 5.508 5.508 0 0 0 4.56 7.966zM16 4.6a1.2 1.2 0 1 0 0-2.4 1.2 1.2 0 0 0 0 2.4z" fill="#000"></path>
  </symbol>
  <symbol viewBox="0 0 24 18" fill="none" xmlns="http://www.w3.org/2000/svg" id="Vector (1)">
    <path d="M23.077 2.13a9.47 9.47 0 0 1-2.617.718 4.516 4.516 0 0 0 1.998-2.51 9.076 9.076 0 0 1-2.88 1.1 4.54 4.54 0 0 0-7.856 3.106c0 .359.03.705.105 1.035C8.05 5.394 4.71 3.585 2.466.828a4.573 4.573 0 0 0-.622 2.296c0 1.573.81 2.967 2.017 3.774a4.485 4.485 0 0 1-2.052-.56v.05a4.563 4.563 0 0 0 3.639 4.463c-.37.101-.773.15-1.19.15-.291 0-.585-.017-.86-.078.588 1.799 2.258 3.121 4.243 3.164a9.125 9.125 0 0 1-5.63 1.937c-.373 0-.73-.017-1.088-.062A12.787 12.787 0 0 0 7.89 18c8.358 0 12.927-6.923 12.927-12.924 0-.2-.007-.395-.017-.587a9.061 9.061 0 0 0 2.277-2.358z" fill="#000"></path>
  </symbol>
  <symbol viewBox="0 0 11 22" fill="none" xmlns="http://www.w3.org/2000/svg" id="Vector">
    <path d="M8.538 4.187H10.4V.943A24.401 24.401 0 0 0 7.687.8C5.002.8 3.163 2.489 3.163 5.593V8.45H.2v3.626h2.963V21.2h3.632v-9.123h2.843l.452-3.626H6.795V5.953c0-1.049.283-1.766 1.743-1.766z" fill="#000"></path>
  </symbol>
</svg>